<mxfile host="Electron" agent="Mozilla/5.0 (X11; Linux x86_64) AppleWebKit/537.36 (KHTML, like Gecko) draw.io/24.7.8 Chrome/128.0.6613.36 Electron/32.0.1 Safari/537.36" version="24.7.8">
  <diagram id="C5RBs43oDa-KdzZeNtuy" name="Page-1">
    <mxGraphModel dx="1760" dy="2289" grid="1" gridSize="10" guides="1" tooltips="1" connect="1" arrows="0" fold="1" page="1" pageScale="1" pageWidth="827" pageHeight="1169" math="0" shadow="0">
      <root>
        <mxCell id="WIyWlLk6GJQsqaUBKTNV-0" />
        <mxCell id="WIyWlLk6GJQsqaUBKTNV-1" parent="WIyWlLk6GJQsqaUBKTNV-0" />
        <mxCell id="I9NOuy1AulMHWnaysWLS-2" value="" style="rounded=0;whiteSpace=wrap;html=1;fillColor=#ffffff;container=0;" vertex="1" parent="WIyWlLk6GJQsqaUBKTNV-1">
          <mxGeometry x="150" y="-1090" width="620" height="900" as="geometry" />
        </mxCell>
        <mxCell id="I9NOuy1AulMHWnaysWLS-3" value="&lt;span style=&quot;background-color: rgb(255, 255, 255);&quot;&gt;&lt;font color=&quot;#000000&quot;&gt;User&lt;/font&gt;&lt;/span&gt;" style="shape=umlActor;verticalLabelPosition=bottom;verticalAlign=top;html=1;outlineConnect=0;strokeColor=#0d0d0d;fillColor=#FFFFFF;container=0;" vertex="1" parent="WIyWlLk6GJQsqaUBKTNV-1">
          <mxGeometry x="178.57142857142856" y="-766.8750000000002" width="34.285714285714285" height="69.37499999999997" as="geometry" />
        </mxCell>
        <mxCell id="I9NOuy1AulMHWnaysWLS-4" value="" style="rounded=0;whiteSpace=wrap;html=1;fillColor=#FFFFFF;strokeColor=#000000;container=0;" vertex="1" parent="WIyWlLk6GJQsqaUBKTNV-1">
          <mxGeometry x="315.71428571428567" y="-1032.8125" width="297.1428571428571" height="745.9893749999998" as="geometry" />
        </mxCell>
        <mxCell id="I9NOuy1AulMHWnaysWLS-6" value="&lt;font style=&quot;font-size: 14px;&quot;&gt;Initialize Game&lt;/font&gt;" style="ellipse;whiteSpace=wrap;html=1;fillColor=#D5E8D4;strokeColor=#000000;fontColor=#030303;container=0;" vertex="1" parent="WIyWlLk6GJQsqaUBKTNV-1">
          <mxGeometry x="384.2857142857143" y="-1009.6875" width="160" height="80.93749999999996" as="geometry" />
        </mxCell>
        <mxCell id="I9NOuy1AulMHWnaysWLS-7" value="Display Intro" style="ellipse;whiteSpace=wrap;html=1;fillColor=#D5E8D4;strokeColor=#000000;fontColor=#030303;fontSize=14;container=0;" vertex="1" parent="WIyWlLk6GJQsqaUBKTNV-1">
          <mxGeometry x="384.2857142857143" y="-905.625" width="160" height="80.93749999999996" as="geometry" />
        </mxCell>
        <mxCell id="I9NOuy1AulMHWnaysWLS-8" value="&lt;span style=&quot;font-size: 14px;&quot;&gt;Select Mode&lt;/span&gt;" style="ellipse;whiteSpace=wrap;html=1;fillColor=#D5E8D4;strokeColor=#000000;fontColor=#030303;labelBackgroundColor=none;fontSize=14;container=0;" vertex="1" parent="WIyWlLk6GJQsqaUBKTNV-1">
          <mxGeometry x="384.2857142857143" y="-801.5625000000001" width="160" height="80.93749999999996" as="geometry" />
        </mxCell>
        <mxCell id="I9NOuy1AulMHWnaysWLS-10" value="Select Rounds" style="ellipse;whiteSpace=wrap;html=1;fillColor=#D5E8D4;strokeColor=#000000;fontColor=#030303;labelBackgroundColor=none;fontSize=14;container=0;" vertex="1" parent="WIyWlLk6GJQsqaUBKTNV-1">
          <mxGeometry x="384.2857142857143" y="-697.5000000000002" width="160" height="80.93749999999996" as="geometry" />
        </mxCell>
        <mxCell id="I9NOuy1AulMHWnaysWLS-11" value="Play Game" style="ellipse;whiteSpace=wrap;html=1;fillColor=#D5E8D4;strokeColor=#000000;fontColor=#030303;labelBackgroundColor=none;fontSize=14;container=0;" vertex="1" parent="WIyWlLk6GJQsqaUBKTNV-1">
          <mxGeometry x="384.2857142857143" y="-593.4375000000001" width="160" height="80.93749999999996" as="geometry" />
        </mxCell>
        <mxCell id="I9NOuy1AulMHWnaysWLS-12" value="Play Again?" style="ellipse;whiteSpace=wrap;html=1;fillColor=#D5E8D4;strokeColor=#000000;fontColor=#030303;labelBackgroundColor=none;fontSize=14;container=0;" vertex="1" parent="WIyWlLk6GJQsqaUBKTNV-1">
          <mxGeometry x="390" y="-385.3125000000001" width="160" height="80.93749999999996" as="geometry" />
        </mxCell>
        <mxCell id="I9NOuy1AulMHWnaysWLS-13" value="Record Score" style="ellipse;whiteSpace=wrap;html=1;fillColor=#D5E8D4;strokeColor=#000000;fontColor=#030303;labelBackgroundColor=none;fontSize=14;container=0;" vertex="1" parent="WIyWlLk6GJQsqaUBKTNV-1">
          <mxGeometry x="384.2857142857143" y="-489.3750000000001" width="160" height="80.93749999999996" as="geometry" />
        </mxCell>
        <mxCell id="I9NOuy1AulMHWnaysWLS-16" value="&lt;font color=&quot;#000000&quot;&gt;&lt;span style=&quot;background-color: rgb(255, 255, 255);&quot;&gt;Bot&lt;/span&gt;&lt;/font&gt;" style="shape=umlActor;verticalLabelPosition=bottom;verticalAlign=top;html=1;outlineConnect=0;strokeColor=#0d0d0d;fillColor=#FFFFFF;container=0;" vertex="1" parent="WIyWlLk6GJQsqaUBKTNV-1">
          <mxGeometry x="700" y="-739.99625" width="34.285714285714285" height="69.37499999999997" as="geometry" />
        </mxCell>
        <mxCell id="I9NOuy1AulMHWnaysWLS-19" value="" style="html=1;verticalAlign=bottom;endArrow=block;curved=0;rounded=0;entryX=0;entryY=0.5;entryDx=0;entryDy=0;strokeColor=#000000;" edge="1" parent="WIyWlLk6GJQsqaUBKTNV-1" source="I9NOuy1AulMHWnaysWLS-3" target="I9NOuy1AulMHWnaysWLS-6">
          <mxGeometry width="80" relative="1" as="geometry">
            <mxPoint x="281.4285714285714" y="-732.1875000000002" as="sourcePoint" />
            <mxPoint x="372.8571428571428" y="-732.1875000000002" as="targetPoint" />
          </mxGeometry>
        </mxCell>
        <mxCell id="I9NOuy1AulMHWnaysWLS-21" value="" style="html=1;verticalAlign=bottom;endArrow=block;curved=0;rounded=0;entryX=0;entryY=0.5;entryDx=0;entryDy=0;strokeColor=#000000;" edge="1" parent="WIyWlLk6GJQsqaUBKTNV-1" source="I9NOuy1AulMHWnaysWLS-3" target="I9NOuy1AulMHWnaysWLS-7">
          <mxGeometry width="80" relative="1" as="geometry">
            <mxPoint x="247.1428571428571" y="-983.09375" as="sourcePoint" />
            <mxPoint x="395.71428571428567" y="-957.65625" as="targetPoint" />
          </mxGeometry>
        </mxCell>
        <mxCell id="I9NOuy1AulMHWnaysWLS-22" value="" style="html=1;verticalAlign=bottom;endArrow=block;curved=0;rounded=0;entryX=0;entryY=0.5;entryDx=0;entryDy=0;strokeColor=#000000;" edge="1" parent="WIyWlLk6GJQsqaUBKTNV-1" source="I9NOuy1AulMHWnaysWLS-3" target="I9NOuy1AulMHWnaysWLS-8">
          <mxGeometry width="80" relative="1" as="geometry">
            <mxPoint x="258.57142857142856" y="-971.53125" as="sourcePoint" />
            <mxPoint x="395.71428571428567" y="-853.5937500000002" as="targetPoint" />
          </mxGeometry>
        </mxCell>
        <mxCell id="I9NOuy1AulMHWnaysWLS-23" value="" style="html=1;verticalAlign=bottom;endArrow=block;curved=0;rounded=0;entryX=0;entryY=0.5;entryDx=0;entryDy=0;strokeColor=#000000;" edge="1" parent="WIyWlLk6GJQsqaUBKTNV-1" source="I9NOuy1AulMHWnaysWLS-3" target="I9NOuy1AulMHWnaysWLS-10">
          <mxGeometry width="80" relative="1" as="geometry">
            <mxPoint x="270" y="-959.96875" as="sourcePoint" />
            <mxPoint x="407.1428571428571" y="-842.03125" as="targetPoint" />
          </mxGeometry>
        </mxCell>
        <mxCell id="I9NOuy1AulMHWnaysWLS-24" value="" style="html=1;verticalAlign=bottom;endArrow=block;curved=0;rounded=0;entryX=0;entryY=0.5;entryDx=0;entryDy=0;strokeColor=#000000;" edge="1" parent="WIyWlLk6GJQsqaUBKTNV-1" source="I9NOuy1AulMHWnaysWLS-3" target="I9NOuy1AulMHWnaysWLS-11">
          <mxGeometry width="80" relative="1" as="geometry">
            <mxPoint x="281.4285714285714" y="-948.40625" as="sourcePoint" />
            <mxPoint x="418.57142857142856" y="-830.46875" as="targetPoint" />
          </mxGeometry>
        </mxCell>
        <mxCell id="I9NOuy1AulMHWnaysWLS-27" value="" style="html=1;verticalAlign=bottom;endArrow=block;curved=0;rounded=0;strokeColor=#000000;entryX=0;entryY=0.5;entryDx=0;entryDy=0;" edge="1" parent="WIyWlLk6GJQsqaUBKTNV-1" source="I9NOuy1AulMHWnaysWLS-3" target="I9NOuy1AulMHWnaysWLS-13">
          <mxGeometry width="80" relative="1" as="geometry">
            <mxPoint x="242.57142857142856" y="-951.875" as="sourcePoint" />
            <mxPoint x="395.71428571428567" y="-541.4062500000001" as="targetPoint" />
          </mxGeometry>
        </mxCell>
        <mxCell id="I9NOuy1AulMHWnaysWLS-29" value="" style="html=1;verticalAlign=bottom;endArrow=block;curved=0;rounded=0;strokeColor=#000000;entryX=0;entryY=0.5;entryDx=0;entryDy=0;" edge="1" parent="WIyWlLk6GJQsqaUBKTNV-1" source="I9NOuy1AulMHWnaysWLS-3" target="I9NOuy1AulMHWnaysWLS-12">
          <mxGeometry width="80" relative="1" as="geometry">
            <mxPoint x="224.28571428571428" y="-695.1875" as="sourcePoint" />
            <mxPoint x="395.71428571428567" y="-437.3437500000001" as="targetPoint" />
          </mxGeometry>
        </mxCell>
        <mxCell id="I9NOuy1AulMHWnaysWLS-33" value="" style="html=1;verticalAlign=bottom;endArrow=block;curved=0;rounded=0;strokeColor=#000000;entryX=1;entryY=0.5;entryDx=0;entryDy=0;exitX=0.5;exitY=0.5;exitDx=0;exitDy=0;exitPerimeter=0;" edge="1" parent="WIyWlLk6GJQsqaUBKTNV-1" source="I9NOuy1AulMHWnaysWLS-16" target="I9NOuy1AulMHWnaysWLS-11">
          <mxGeometry width="80" relative="1" as="geometry">
            <mxPoint x="224.28571428571428" y="-685.9375" as="sourcePoint" />
            <mxPoint x="401.42857142857133" y="-333.2812500000001" as="targetPoint" />
          </mxGeometry>
        </mxCell>
        <mxCell id="I9NOuy1AulMHWnaysWLS-34" value="Fig: Use-Case Digram" style="text;html=1;align=center;verticalAlign=middle;whiteSpace=wrap;rounded=0;fontColor=#000000;fontSize=18;container=0;" vertex="1" parent="WIyWlLk6GJQsqaUBKTNV-1">
          <mxGeometry x="350.0042857142857" y="-260.00312500000007" width="228.57142857142856" height="65.05062499999997" as="geometry" />
        </mxCell>
      </root>
    </mxGraphModel>
  </diagram>
</mxfile>
